<?xml version="1.0" encoding="utf-8"?>
<!-- Generator: Adobe Illustrator 19.1.0, SVG Export Plug-In . SVG Version: 6.00 Build 0)  -->
<svg version="1.1" id="レイヤー_1" xmlns="http://www.w3.org/2000/svg" xmlns:xlink="http://www.w3.org/1999/xlink" x="0px"
	 y="0px" viewBox="0 0 18 18" style="enable-background:new 0 0 18 18;" xml:space="preserve">
<style type="text/css">
	.st0{fill:#FFFFFF;}
	.st1{fill:#02AC3F;}
</style>
<rect x="0" y="3.9" class="st0" width="15.6" height="10"/>
<g>
	<g>
		<path class="st1" d="M2,9.7c0,1.3,1.1,2,1.9,2s1.9-0.6,1.9-2c0-1-1-1.9-1.9-2.4C3,7.9,2,8.7,2,9.7z M9.8,9.7c0,1.3,1.1,2,1.9,2
			c0.9,0,1.9-0.6,1.9-2c0-1-1-1.9-1.9-2.4C10.8,7.8,9.8,8.7,9.8,9.7z M0,3.9v10h15.6v-10H0z M15.6,6.4c-0.9,0-2.1,0.2-3,0.6
			c1,0.6,1.9,1.6,1.9,2.8c0,1.6-1.4,2.8-2.9,2.8c-1.5,0-2.8-1.2-2.8-2.8c0-1.2,0.9-2.2,1.8-2.8C9.8,6.5,8.7,6.4,7.8,6.4
			c-0.9,0-2,0.2-2.9,0.6c1,0.6,1.8,1.6,1.8,2.8c0,1.6-1.3,2.8-2.8,2.8S1,11.3,1,9.7C1,8.5,2,7.5,3,6.9c-0.9-0.4-2-0.6-3-0.6V5.5
			c1.6,0,3,0.4,3.9,0.9c1-0.5,2.3-0.9,3.9-0.9c1.6,0,2.9,0.4,3.9,0.9c1-0.5,2.4-0.9,3.9-0.9V6.4z"/>
	</g>
</g>
<path class="st0" d="M16.1,13.1c0,0.5,0.4,1,1,1c0.5,0,1-0.4,1-1c0-0.5-0.4-1-1-1C16.5,12.2,16.1,12.6,16.1,13.1 M16.2,13.1
	c0-0.5,0.4-0.9,0.9-0.9c0.5,0,0.9,0.4,0.9,0.9c0,0.5-0.4,0.8-0.9,0.8C16.6,14,16.2,13.6,16.2,13.1z M17.5,13.7h-0.2l-0.4-0.6h-0.2
	v0.6h-0.1v-1.3H17c0.1,0,0.2,0,0.3,0.1c0.1,0.1,0.1,0.1,0.1,0.2c0,0.1,0,0.1-0.1,0.2c-0.1,0.1-0.1,0.1-0.2,0.1L17.5,13.7 M16.8,13
	H17c0.1,0,0.1,0,0.2-0.1c0,0,0.1-0.1,0.1-0.2c0-0.1-0.1-0.2-0.3-0.2h-0.2V13z"/>
</svg>
